<svg width="32" height="32" viewBox="0 0 32 32" fill="none" xmlns="http://www.w3.org/2000/svg">
<g clip-path="url(#clip0_166_100)">
<path d="M31.9239 22.4612L15.9999 32.0159L0.0759277 22.4612L7.62793 17.9306L9.59859 19.8572L5.25859 22.4612L16.0013 28.9066L26.7439 22.4612L22.4026 19.8572L24.3733 17.9306L31.9266 22.4626L31.9239 22.4612ZM9.41059 15.9439C5.76259 12.2946 5.76259 6.37322 9.39993 2.73455C11.1626 0.971888 13.5079 0.0012207 15.9999 0.0012207C18.4919 0.0012207 20.8373 0.971888 22.5986 2.73455C24.3613 4.49722 25.3333 6.84122 25.3333 9.33455C25.3333 11.8279 24.3613 14.1706 22.5986 15.9346L15.9999 22.3892L9.41059 15.9439ZM11.2853 14.0479L15.9999 18.6586L20.7239 14.0372C21.9733 12.7879 22.6666 11.1146 22.6666 9.33322C22.6666 7.55189 21.9719 5.87855 20.7133 4.61855C19.4546 3.35855 17.7813 2.66655 15.9999 2.66655C14.2186 2.66655 12.5439 3.35989 11.2853 4.61855C8.68659 7.21855 8.68659 11.4479 11.2853 14.0466V14.0479ZM15.9999 13.3212C18.2093 13.3212 19.9999 11.5306 19.9999 9.32122C19.9999 7.11189 18.2093 5.32122 15.9999 5.32122C13.7906 5.32122 11.9999 7.11189 11.9999 9.32122C11.9999 11.5306 13.7906 13.3212 15.9999 13.3212Z" fill="#D02128"/>
</g>
<defs>
<clipPath id="clip0_166_100">
<rect width="32" height="32" fill="white"/>
</clipPath>
</defs>
</svg>
