<svg width="32" height="32" viewBox="0 0 32 32" fill="none" xmlns="http://www.w3.org/2000/svg">
<g clip-path="url(#clip0_166_111)">
<path d="M30.6906 11.7133C29.8973 10.9907 28.8827 10.6187 27.7987 10.6707C26.7267 10.72 25.7386 11.1853 25.0186 11.9787L20.7293 16.6907C20.16 15.752 19.2306 15.0587 18.136 14.7907C18.464 14.1547 18.6666 13.4453 18.6666 12.6813C18.6666 9.32532 16.316 5.38532 13.18 3.92266C13.6293 3.45332 14.068 2.93199 14.42 2.37199C15.0706 1.34266 14.356 -0.00134277 13.1373 -0.00134277H8.19331C6.97465 -0.00134277 6.26131 1.34266 6.91065 2.37199C7.26398 2.93199 7.70131 3.45199 8.15065 3.92266C5.01465 5.38399 2.66398 9.32532 2.66398 12.6813C2.66398 13.5533 2.92131 14.3613 3.34131 15.0587C1.38398 15.8493 -0.00268555 17.7613 -0.00268555 19.9987V26.6653C-0.00268555 29.6067 2.38931 31.9987 5.33065 31.9987H11.9506C15.7506 31.9987 19.3773 30.372 21.9066 27.5347L30.9786 17.352C32.4373 15.7187 32.3067 13.188 30.688 11.712L30.6906 11.7133ZM10.6666 5.99999C13.0946 6.06532 16 9.65066 16 12.6827C16 13.7773 15.1026 14.6667 14 14.6667H7.33331C6.23065 14.6667 5.33331 13.7773 5.33331 12.6827C5.33331 9.65066 8.23865 6.06532 10.6666 5.99999ZM28.9893 15.5787L19.916 25.7627C17.8933 28.032 14.992 29.3333 11.952 29.3333H5.33198C3.86131 29.3333 2.66531 28.1373 2.66531 26.6667V20C2.66531 18.5293 3.86131 17.3333 5.33198 17.3333H17.1413C17.9813 17.3333 18.6653 18.016 18.6653 18.856C18.6653 19.608 18.1026 20.2573 17.3586 20.364L10.4773 21.3467C9.74798 21.4507 9.24131 22.1253 9.34531 22.8547C9.44931 23.5827 10.124 24.084 10.8546 23.9853L17.736 23.0027C19.3026 22.7787 20.5733 21.6853 21.088 20.2587L26.9906 13.772C27.232 13.5053 27.564 13.3507 27.9226 13.3333C28.284 13.324 28.6266 13.4427 28.8933 13.6827C29.436 14.1787 29.48 15.028 28.9893 15.5773V15.5787Z" fill="white"/>
</g>
<defs>
<clipPath id="clip0_166_111">
<rect width="32" height="32" fill="white"/>
</clipPath>
</defs>
</svg>
