<svg width="32" height="32" viewBox="0 0 32 32" fill="none" xmlns="http://www.w3.org/2000/svg">
<g clip-path="url(#clip0_166_109)">
<path d="M29.4093 6.97326L19.5773 2.28926C17.413 0.996512 14.7193 0.973574 12.5333 2.22926L2.59067 6.97326C2.55336 6.99195 2.51467 7.01195 2.47867 7.03326C0.119168 8.38239 -0.699957 11.3888 0.649168 13.7483C1.10648 14.5482 1.77917 15.2036 2.59067 15.6399L5.33336 16.9466V23.4799C5.33498 26.4014 7.23592 28.9824 10.0254 29.8506C11.9665 30.4122 13.9794 30.6871 16 30.6666C18.0204 30.6893 20.0332 30.4166 21.9747 29.8573C24.7642 28.9891 26.6651 26.4081 26.6667 23.4866V16.9439L29.3334 15.6693V26.6666C29.3334 27.4029 29.9304 27.9999 30.6667 27.9999C31.4031 27.9999 32 27.4029 32 26.6666V10.6666C32.0089 9.10089 30.7727 7.65451 29.4093 6.97326ZM24 23.4866C24.0007 25.2341 22.8669 26.7798 21.2 27.3039C19.5096 27.7869 17.7579 28.0214 16 27.9999C14.242 28.0214 12.4904 27.7869 10.8 27.3039C9.13304 26.7797 7.99929 25.2341 7.99998 23.4866V18.2173L12.4227 20.324C13.5139 20.972 14.7602 21.3125 16.0294 21.3093C17.2374 21.3179 18.425 20.9981 19.4654 20.384L24 18.2173V23.4866ZM28.2667 13.2333L18.2107 18.0333C16.8085 18.8497 15.0706 18.8266 13.6907 17.9733L3.85198 13.2933C2.75529 12.7019 2.34567 11.3334 2.93704 10.2368C3.13704 9.86595 3.43692 9.55851 3.80267 9.34926L13.796 4.57595C15.1985 3.76132 16.9355 3.78439 18.316 4.63595L28.148 9.31995C28.871 9.72145 29.3234 10.4796 29.3333 11.3066C29.3346 12.09 28.9312 12.8185 28.2667 13.2333Z" fill="white"/>
</g>
<defs>
<clipPath id="clip0_166_109">
<rect width="32" height="32" fill="white"/>
</clipPath>
</defs>
</svg>
