<svg width="32" height="32" viewBox="0 0 32 32" fill="none" xmlns="http://www.w3.org/2000/svg">
<g clip-path="url(#clip0_166_102)">
<path d="M25.3333 1.33325H6.66667C4.89921 1.33537 3.20474 2.03843 1.95496 3.28821C0.705176 4.538 0.00211714 6.23246 0 7.99992L0 23.9999C0.00211714 25.7674 0.705176 27.4618 1.95496 28.7116C3.20474 29.9614 4.89921 30.6645 6.66667 30.6666H25.3333C27.1008 30.6645 28.7953 29.9614 30.045 28.7116C31.2948 27.4618 31.9979 25.7674 32 23.9999V7.99992C31.9979 6.23246 31.2948 4.538 30.045 3.28821C28.7953 2.03843 27.1008 1.33537 25.3333 1.33325ZM6.66667 3.99992H25.3333C26.1317 4.00149 26.9114 4.24194 27.5719 4.69032C28.2325 5.13871 28.7438 5.77451 29.04 6.51592L18.8293 16.7279C18.0779 17.4763 17.0606 17.8965 16 17.8965C14.9394 17.8965 13.9221 17.4763 13.1707 16.7279L2.96 6.51592C3.2562 5.77451 3.76748 5.13871 4.42806 4.69032C5.08864 4.24194 5.86829 4.00149 6.66667 3.99992ZM25.3333 27.9999H6.66667C5.6058 27.9999 4.58839 27.5785 3.83824 26.8283C3.08809 26.0782 2.66667 25.0608 2.66667 23.9999V9.99992L11.2853 18.6133C12.5368 19.8616 14.2323 20.5626 16 20.5626C17.7677 20.5626 19.4632 19.8616 20.7147 18.6133L29.3333 9.99992V23.9999C29.3333 25.0608 28.9119 26.0782 28.1618 26.8283C27.4116 27.5785 26.3942 27.9999 25.3333 27.9999Z" fill="#D02128"/>
</g>
<defs>
<clipPath id="clip0_166_102">
<rect width="32" height="32" fill="white"/>
</clipPath>
</defs>
</svg>
