<svg width="14" height="26" viewBox="0 0 14 26" fill="none" xmlns="http://www.w3.org/2000/svg">
<path fill-rule="evenodd" clip-rule="evenodd" d="M10.8245 4.38761C11.6302 4.35962 12.435 4.38073 13.2425 4.38073C13.3404 4.38073 13.4401 4.38073 13.5749 4.38073V0.190453C13.1445 0.146712 12.6939 0.0852295 12.2434 0.0627472C11.4175 0.0277237 10.5899 -0.0143353 9.76344 0.00478236C8.50122 0.0312411 7.30629 0.339265 6.26262 1.08806C5.06586 1.94866 4.40806 3.15598 4.15877 4.58353C4.05538 5.1748 4.02831 5.78366 4.01271 6.38211C3.98916 7.32316 4.00751 8.26283 4.00904 9.20403V9.55579H0V14.2359H3.98549V26H8.85635V14.2552H12.8296C13.0326 12.6978 13.232 11.1585 13.4401 9.55227C13.1217 9.55227 12.8348 9.55227 12.5479 9.55227C11.4177 9.55763 8.82485 9.55227 8.82485 9.55227C8.82485 9.55227 8.8354 7.23231 8.86339 6.22825C8.90269 4.84781 9.72062 4.42783 10.8245 4.38761Z" fill="white"/>
</svg>
