<svg width="32" height="32" viewBox="0 0 32 32" fill="none" xmlns="http://www.w3.org/2000/svg">
<g clip-path="url(#clip0_166_116)">
<path d="M25.3333 6.66659H21.3333V5.33325C21.3333 4.27239 20.9119 3.25497 20.1618 2.50482C19.4116 1.75468 18.3942 1.33325 17.3333 1.33325H14.6667C13.6058 1.33325 12.5884 1.75468 11.8382 2.50482C11.0881 3.25497 10.6667 4.27239 10.6667 5.33325V6.66659H6.66667C4.89921 6.6687 3.20474 7.37176 1.95496 8.62155C0.705176 9.87133 0.00211714 11.5658 0 13.3333L0 23.9999C0.00211714 25.7674 0.705176 27.4618 1.95496 28.7116C3.20474 29.9614 4.89921 30.6645 6.66667 30.6666H25.3333C27.1008 30.6645 28.7953 29.9614 30.045 28.7116C31.2948 27.4618 31.9979 25.7674 32 23.9999V13.3333C31.9979 11.5658 31.2948 9.87133 30.045 8.62155C28.7953 7.37176 27.1008 6.6687 25.3333 6.66659ZM13.3333 5.33325C13.3333 4.97963 13.4738 4.64049 13.7239 4.39044C13.9739 4.14039 14.313 3.99992 14.6667 3.99992H17.3333C17.687 3.99992 18.0261 4.14039 18.2761 4.39044C18.5262 4.64049 18.6667 4.97963 18.6667 5.33325V6.66659H13.3333V5.33325ZM29.3333 23.9999C29.3333 25.0608 28.9119 26.0782 28.1618 26.8283C27.4116 27.5785 26.3942 27.9999 25.3333 27.9999H6.66667C5.6058 27.9999 4.58839 27.5785 3.83824 26.8283C3.08809 26.0782 2.66667 25.0608 2.66667 23.9999V13.3333C2.66667 12.2724 3.08809 11.255 3.83824 10.5048C4.58839 9.75468 5.6058 9.33325 6.66667 9.33325H25.3333C26.3942 9.33325 27.4116 9.75468 28.1618 10.5048C28.9119 11.255 29.3333 12.2724 29.3333 13.3333V23.9999ZM21.3333 18.6666C21.3333 19.0202 21.1929 19.3593 20.9428 19.6094C20.6928 19.8594 20.3536 19.9999 20 19.9999H17.3333V22.6666C17.3333 23.0202 17.1929 23.3593 16.9428 23.6094C16.6928 23.8594 16.3536 23.9999 16 23.9999C15.6464 23.9999 15.3072 23.8594 15.0572 23.6094C14.8071 23.3593 14.6667 23.0202 14.6667 22.6666V19.9999H12C11.6464 19.9999 11.3072 19.8594 11.0572 19.6094C10.8071 19.3593 10.6667 19.0202 10.6667 18.6666C10.6667 18.313 10.8071 17.9738 11.0572 17.7238C11.3072 17.4737 11.6464 17.3333 12 17.3333H14.6667V14.6666C14.6667 14.313 14.8071 13.9738 15.0572 13.7238C15.3072 13.4737 15.6464 13.3333 16 13.3333C16.3536 13.3333 16.6928 13.4737 16.9428 13.7238C17.1929 13.9738 17.3333 14.313 17.3333 14.6666V17.3333H20C20.3536 17.3333 20.6928 17.4737 20.9428 17.7238C21.1929 17.9738 21.3333 18.313 21.3333 18.6666Z" fill="white"/>
</g>
<defs>
<clipPath id="clip0_166_116">
<rect width="32" height="32" fill="white"/>
</clipPath>
</defs>
</svg>
