<svg width="32" height="32" viewBox="0 0 32 32" fill="none" xmlns="http://www.w3.org/2000/svg">
<g clip-path="url(#clip0_166_113)">
<path d="M19.9999 32H11.9999V27.316C10.6096 26.8241 9.32185 26.0801 8.20125 25.1213L4.14258 27.4667L0.142578 20.5333L4.19991 18.1933C3.93339 16.7433 3.93339 15.2567 4.19991 13.8067L0.142578 11.4667L4.14258 4.53333L8.20125 6.87867C9.32185 5.9199 10.6096 5.17592 11.9999 4.684V0H19.9999V4.684C21.3902 5.17592 22.678 5.9199 23.7986 6.87867L27.8572 4.53333L31.8572 11.4667L27.7999 13.8067C28.0664 15.2567 28.0664 16.7433 27.7999 18.1933L31.8572 20.5333L27.8572 27.4667L23.7986 25.1227C22.6779 26.081 21.3901 26.8245 19.9999 27.316V32ZM14.6666 29.3333H17.3332V25.2973L18.3346 25.0387C19.9773 24.6131 21.4724 23.7468 22.6586 22.5333L23.3826 21.796L26.8799 23.816L28.2132 21.5067L24.7199 19.4893L24.9946 18.4947C25.4461 16.8586 25.4461 15.1308 24.9946 13.4947L24.7199 12.5L28.2132 10.4827L26.8799 8.17333L23.3826 10.1987L22.6586 9.46667C21.4718 8.25512 19.9767 7.39069 18.3346 6.96667L17.3332 6.70267V2.66667H14.6666V6.70267L13.6652 6.96133C12.0226 7.38687 10.5274 8.25318 9.34125 9.46667L8.61724 10.204L5.11991 8.17867L3.78658 10.488L7.27991 12.5053L7.00525 13.5C6.55372 15.1361 6.55372 16.8639 7.00525 18.5L7.27991 19.4947L3.78658 21.512L5.11991 23.8213L8.61724 21.8013L9.34125 22.5387C10.528 23.7502 12.0231 24.6146 13.6652 25.0387L14.6666 25.2973V29.3333ZM15.9999 21.3333C14.9451 21.3333 13.9139 21.0205 13.0369 20.4345C12.1598 19.8485 11.4762 19.0155 11.0726 18.041C10.6689 17.0664 10.5633 15.9941 10.7691 14.9595C10.9748 13.925 11.4828 12.9746 12.2287 12.2288C12.9746 11.4829 13.9249 10.9749 14.9594 10.7691C15.994 10.5634 17.0664 10.669 18.0409 11.0726C19.0154 11.4763 19.8484 12.1599 20.4344 13.037C21.0204 13.914 21.3332 14.9452 21.3332 16C21.3332 17.4145 20.7713 18.771 19.7711 19.7712C18.771 20.7714 17.4144 21.3333 15.9999 21.3333ZM15.9999 13.3333C15.4725 13.3333 14.9569 13.4897 14.5184 13.7827C14.0799 14.0758 13.7381 14.4922 13.5362 14.9795C13.3344 15.4668 13.2816 16.003 13.3845 16.5202C13.4874 17.0375 13.7414 17.5127 14.1143 17.8856C14.4872 18.2586 14.9624 18.5125 15.4797 18.6154C15.997 18.7183 16.5331 18.6655 17.0204 18.4637C17.5077 18.2618 17.9241 17.9201 18.2172 17.4815C18.5102 17.043 18.6666 16.5274 18.6666 16C18.6666 15.2928 18.3856 14.6145 17.8855 14.1144C17.3854 13.6143 16.7072 13.3333 15.9999 13.3333Z" fill="white"/>
</g>
<defs>
<clipPath id="clip0_166_113">
<rect width="32" height="32" fill="white"/>
</clipPath>
</defs>
</svg>
