<svg width="32" height="29" viewBox="0 0 32 29" fill="none" xmlns="http://www.w3.org/2000/svg">
<path d="M17.3097 1.21253C17.3097 0.891459 17.4504 0.583539 17.7008 0.356509C17.9513 0.129478 18.291 0.00193328 18.6452 0.00193328C22.186 0.00545805 25.5807 1.28204 28.0845 3.55158C30.5883 5.82112 31.9966 8.89828 32.0005 12.1079C32.0005 12.429 31.8598 12.7369 31.6093 12.9639C31.3588 13.1909 31.0191 13.3185 30.6649 13.3185C30.3107 13.3185 29.971 13.1909 29.7206 12.9639C29.4701 12.7369 29.3294 12.429 29.3294 12.1079C29.3262 9.54022 28.1995 7.07853 26.1966 5.26291C24.1936 3.44729 21.4778 2.42601 18.6452 2.42313C18.291 2.42313 17.9513 2.29558 17.7008 2.06855C17.4504 1.84152 17.3097 1.5336 17.3097 1.21253ZM18.6452 7.26551C20.062 7.26551 21.4208 7.77569 22.4226 8.68381C23.4245 9.59193 23.9873 10.8236 23.9873 12.1079C23.9873 12.429 24.128 12.7369 24.3785 12.9639C24.6289 13.1909 24.9686 13.3185 25.3228 13.3185C25.677 13.3185 26.0167 13.1909 26.2672 12.9639C26.5176 12.7369 26.6584 12.429 26.6584 12.1079C26.6562 10.1821 25.8113 8.33566 24.309 6.97389C22.8067 5.61213 20.7698 4.84624 18.6452 4.84432C18.291 4.84432 17.9513 4.97186 17.7008 5.19889C17.4504 5.42592 17.3097 5.73384 17.3097 6.05491C17.3097 6.37598 17.4504 6.6839 17.7008 6.91093C17.9513 7.13796 18.291 7.26551 18.6452 7.26551ZM30.7891 20.2661C31.5631 20.9696 31.9977 21.9226 31.9977 22.9161C31.9977 23.9096 31.5631 24.8626 30.7891 25.5661L29.5738 26.836C18.6358 36.3283 -7.98121 12.2072 2.32906 2.26091L3.86491 1.05031C4.64188 0.368353 5.68381 -0.00890267 6.76528 0.000159568C7.84676 0.0092218 8.88081 0.403873 9.64374 1.09873C9.68514 1.13626 12.1599 4.05017 12.1599 4.05017C12.8942 4.74944 13.303 5.67833 13.3012 6.64375C13.2995 7.60917 12.8874 8.53684 12.1505 9.23394L10.604 10.9966C11.4599 12.8816 12.7182 14.5948 14.3067 16.0376C15.8953 17.4804 17.7827 18.6245 19.8605 19.4042L21.8171 17.9938C22.5862 17.3264 23.6094 16.9533 24.6742 16.9519C25.7389 16.9506 26.7633 17.3211 27.5345 17.9865C27.5345 17.9865 30.7477 20.2286 30.7891 20.2661ZM28.9515 22.0263C28.9515 22.0263 25.7555 19.7976 25.7141 19.7601C25.439 19.5128 25.0672 19.374 24.6798 19.374C24.2923 19.374 23.9205 19.5128 23.6454 19.7601C23.6093 19.794 20.9156 21.7394 20.9156 21.7394C20.7341 21.8704 20.518 21.9562 20.2888 21.9885C20.0595 22.0208 19.8249 21.9983 19.6081 21.9234C16.9163 21.0149 14.4713 19.5927 12.4388 17.753C10.4062 15.9133 8.83361 13.6991 7.82742 11.2605C7.73821 11.0613 7.70912 10.8441 7.74316 10.6314C7.77719 10.4186 7.87312 10.2179 8.02107 10.0499C8.02107 10.0499 10.1673 7.6069 10.2033 7.57542C10.4761 7.32602 10.6292 6.98903 10.6292 6.63782C10.6292 6.2866 10.4761 5.94961 10.2033 5.70021C10.1619 5.66389 7.70322 2.76451 7.70322 2.76451C7.42396 2.53754 7.0595 2.41598 6.68454 2.42476C6.30958 2.43353 5.95253 2.57198 5.68657 2.81173L4.15072 4.02232C-3.38433 12.235 19.6816 31.9835 27.6213 25.1823L28.8379 23.9112C29.123 23.6718 29.2943 23.3413 29.3155 22.9896C29.3367 22.6378 29.2061 22.2924 28.9515 22.0263Z" fill="#D02128"/>
</svg>
