<svg width="32" height="32" viewBox="0 0 32 32" fill="none" xmlns="http://www.w3.org/2000/svg">
<g clip-path="url(#clip0_166_88)">
<path d="M1.42267 20.5481L4.18933 22.5174C5.60533 23.5241 7.27867 24.0374 8.952 24.0374C10.1427 24.0374 11.3347 23.7774 12.4347 23.2507L29.7053 15.6534C31.6867 14.7067 32.5493 12.3147 31.6267 10.3201C30.7013 8.32407 28.3267 7.45074 26.3253 8.36674L22.1347 10.2361L13.3093 4.78807C12.1333 3.91341 10.576 3.75607 9.24 4.37341L8.19867 4.86141C7.384 5.24407 6.82133 6.00407 6.69333 6.89474C6.56533 7.78674 6.89067 8.67474 7.56533 9.27207L13.1707 14.2321L8.38267 16.3681L4.30667 14.8721C2.99467 14.3934 1.528 14.8174 0.66 15.9267C0.137333 16.5947 -0.0813333 17.4361 0.044 18.2947C0.176 19.1974 0.677333 20.0174 1.42133 20.5454L1.42267 20.5481ZM9.33333 7.27607L10.368 6.79074C10.8107 6.58541 11.3293 6.64007 11.8147 6.99207L19.1893 11.5494L15.848 13.0401L9.33333 7.27607ZM2.76133 17.5721C2.892 17.4054 3.06 17.3467 3.20667 17.3467C3.27333 17.3467 7.972 19.0601 7.972 19.0601C8.29867 19.1801 8.65867 19.1681 8.97467 19.0267L27.4187 10.7987L27.436 10.7907C28.104 10.4827 28.8973 10.7747 29.2067 11.4401C29.5187 12.1161 29.228 12.9254 28.5933 13.2294L11.3227 20.8267C9.51333 21.6894 7.37067 21.5067 5.73467 20.3441L2.968 18.3761C2.816 18.2681 2.71067 18.0947 2.684 17.9121C2.664 17.7761 2.69067 17.6627 2.76133 17.5721ZM32 30.6667C32 31.4041 31.4027 32.0001 30.6667 32.0001H1.33333C0.597333 32.0001 0 31.4041 0 30.6667C0 29.9294 0.597333 29.3334 1.33333 29.3334H30.6667C31.4027 29.3334 32 29.9294 32 30.6667Z" fill="white"/>
</g>
<defs>
<clipPath id="clip0_166_88">
<rect width="32" height="32" fill="white"/>
</clipPath>
</defs>
</svg>
