<svg width="26" height="26" viewBox="0 0 26 26" fill="none" xmlns="http://www.w3.org/2000/svg">
<path d="M23.422 23.3476L14.9666 10.9795L14.0107 9.58064L7.96245 0.733275L7.46116 0H0.0289307L1.8416 2.65209L9.88369 14.4174L10.8396 15.8146L17.3015 25.2677L17.8028 26H25.235L23.422 23.3476ZM18.6856 24.3072L11.9727 14.4864L11.0167 13.0882L3.22692 1.69262H6.57781L12.8775 10.9087L13.8335 12.3066L22.0366 24.3074H18.6856V24.3072Z" fill="white"/>
<path d="M11.0167 13.0884L11.9727 14.4864L10.8395 15.8145L2.14413 25.9999H0L9.88354 14.4173L11.0167 13.0884Z" fill="white"/>
<path d="M24.3397 0L14.9666 10.9795L13.8335 12.3065L12.8774 10.9086L14.0107 9.58064L20.36 2.13953L22.1955 0H24.3397Z" fill="white"/>
</svg>
